<svg width="3726" height="556" viewBox="0 0 3726 556" fill="none" xmlns="http://www.w3.org/2000/svg">
<path d="M0.33252 456.467H261.899" stroke="black" stroke-miterlimit="2.41"/>
<path d="M4.29053 357.031H265.863" stroke="black" stroke-miterlimit="2.41"/>
<path d="M584.503 450.947H563.702V284.053H360.043V450.947H339.726V110.871H360.043V265.671H563.702V110.871H584.503V450.947ZM844.028 450.947H832.418C823.065 450.947 816.293 448.851 812.1 444.658C808.23 440.466 806.295 433.855 806.295 424.825V415.633C796.62 428.533 783.559 438.531 767.111 445.626C750.986 452.721 734.539 456.268 717.769 456.268C708.094 456.268 698.741 454.817 689.711 451.915C680.681 449.335 672.619 445.303 665.524 439.821C658.751 434.016 653.269 426.76 649.076 418.052C644.884 409.345 642.788 398.863 642.788 386.608C642.788 372.418 645.529 360.163 651.011 349.843C656.816 339.201 664.395 330.493 673.748 323.721C683.1 316.948 693.904 311.95 706.159 308.725C718.414 305.177 731.153 303.403 744.375 303.403C754.695 303.403 765.176 304.371 775.819 306.306C786.461 308.241 796.62 311.143 806.295 315.013V283.57C806.295 273.572 804.36 264.703 800.49 256.963C796.943 249.223 792.105 242.773 785.978 237.613C780.173 232.131 773.239 228.1 765.176 225.52C757.436 222.617 749.213 221.166 740.505 221.166C728.25 221.166 715.995 224.391 703.74 230.841C691.485 237.291 681.165 247.288 672.78 260.833L656.816 249.223C660.686 241.806 665.685 235.356 671.813 229.873C678.263 224.068 685.358 219.07 693.098 214.877C700.838 210.685 709.061 207.621 717.769 205.686C726.799 203.428 735.668 202.3 744.375 202.3C755.018 202.3 765.338 203.912 775.335 207.137C785.333 210.362 794.04 215.361 801.458 222.133C809.198 228.906 815.325 237.613 819.84 248.256C824.678 258.898 827.096 271.637 827.096 286.472V424.825C827.096 430.307 830.321 433.048 836.771 433.048H844.028V450.947ZM806.295 389.995V337.266C799.2 332.428 790.331 328.558 779.689 325.656C769.369 322.753 758.404 321.302 746.794 321.302C735.506 321.302 724.864 322.753 714.866 325.656C705.191 328.558 696.645 332.751 689.228 338.233C681.81 343.716 675.844 350.488 671.329 358.551C667.136 366.291 665.04 374.998 665.04 384.673C665.04 393.703 666.491 401.605 669.394 408.377C672.296 414.827 676.166 420.31 681.004 424.825C686.164 429.017 691.969 432.242 698.419 434.5C705.191 436.435 712.448 437.402 720.188 437.402C735.023 437.402 750.341 433.371 766.144 425.308C782.269 417.246 795.653 405.475 806.295 389.995ZM1026.22 208.588L1018.48 228.422C1012.35 224.875 1004.13 223.101 993.809 223.101C985.424 223.101 977.039 224.713 968.654 227.938C960.269 230.841 952.69 235.517 945.917 241.967C939.145 248.417 933.662 256.802 929.47 267.122C925.277 277.12 923.181 289.375 923.181 303.887V450.947H901.896V208.588H923.181V243.902C930.921 229.712 941.241 219.553 954.141 213.426C967.364 206.976 981.392 203.751 996.227 203.751C1007.84 203.751 1017.83 205.363 1026.22 208.588ZM1374.42 303.887V450.947H1352.65V298.566C1352.65 285.343 1351.04 273.895 1347.82 264.22C1344.91 254.222 1340.72 246.16 1335.24 240.032C1330.08 233.582 1324.11 228.906 1317.34 226.003C1310.89 222.778 1303.96 221.166 1296.54 221.166C1288.48 221.166 1280.57 223.101 1272.83 226.971C1265.09 230.518 1258 235.84 1251.55 242.935C1245.42 249.707 1240.42 258.253 1236.55 268.573C1232.68 278.893 1230.75 290.665 1230.75 303.887V450.947H1209.46V298.566C1209.46 285.343 1207.85 273.895 1204.63 264.22C1201.4 254.222 1197.21 246.16 1192.05 240.032C1186.89 233.582 1180.92 228.906 1174.15 226.003C1167.38 222.778 1160.28 221.166 1152.86 221.166C1145.12 221.166 1137.38 222.94 1129.64 226.487C1121.9 230.035 1114.97 235.356 1108.84 242.451C1102.72 249.223 1097.72 257.608 1093.85 267.606C1090.3 277.603 1088.53 289.213 1088.53 302.436V450.947H1067.24V208.588H1088.53V243.902C1095.94 230.68 1105.62 220.521 1117.55 213.426C1129.81 206.331 1142.71 202.783 1156.25 202.783C1170.44 202.783 1183.82 207.621 1196.4 217.296C1208.98 226.648 1217.53 240.516 1222.04 258.898C1228.81 240.193 1239.13 226.003 1253 216.328C1266.87 206.653 1281.22 201.816 1296.05 201.816C1305.73 201.816 1315.24 203.751 1324.6 207.621C1333.95 211.491 1342.33 217.618 1349.75 226.003C1357.17 234.066 1363.13 244.547 1367.65 257.447C1372.16 270.347 1374.42 285.827 1374.42 303.887ZM1638.25 329.526C1638.25 348.553 1635.84 365.968 1631 381.771C1626.48 397.573 1619.71 411.118 1610.68 422.406C1601.97 433.371 1591.17 441.917 1578.27 448.045C1565.69 454.172 1551.34 457.236 1535.22 457.236C1519.41 457.236 1505.06 454.172 1492.16 448.045C1479.58 441.917 1468.78 433.371 1459.75 422.406C1451.04 411.118 1444.27 397.573 1439.43 381.771C1434.92 365.968 1432.66 348.553 1432.66 329.526C1432.66 310.498 1434.92 293.245 1439.43 277.765C1444.27 261.962 1451.04 248.578 1459.75 237.613C1468.78 226.326 1479.58 217.618 1492.16 211.491C1505.06 205.363 1519.41 202.3 1535.22 202.3C1551.34 202.3 1565.69 205.363 1578.27 211.491C1591.17 217.618 1601.97 226.326 1610.68 237.613C1619.71 248.578 1626.48 261.962 1631 277.765C1635.84 293.245 1638.25 310.498 1638.25 329.526ZM1615.52 329.526C1615.52 313.401 1613.74 298.727 1610.2 285.505C1606.65 272.282 1601.33 260.995 1594.23 251.642C1587.46 241.967 1579.08 234.55 1569.08 229.39C1559.08 224.23 1547.79 221.65 1535.22 221.65C1522.64 221.65 1511.35 224.23 1501.35 229.39C1491.36 234.55 1482.97 241.967 1476.2 251.642C1469.43 260.995 1464.27 272.282 1460.72 285.505C1457.17 298.727 1455.4 313.401 1455.4 329.526C1455.4 345.651 1457.17 360.486 1460.72 374.031C1464.27 387.253 1469.43 398.702 1476.2 408.377C1482.97 417.73 1491.36 424.986 1501.35 430.146C1511.35 435.306 1522.64 437.886 1535.22 437.886C1547.79 437.886 1559.08 435.306 1569.08 430.146C1579.08 424.986 1587.46 417.73 1594.23 408.377C1601.33 398.702 1606.65 387.253 1610.2 374.031C1613.74 360.486 1615.52 345.651 1615.52 329.526ZM1871.61 303.887V450.947H1850.33V298.566C1850.33 274.056 1844.84 255.19 1833.88 241.967C1823.24 228.745 1808.08 222.133 1788.41 222.133C1780.02 222.133 1771.64 223.585 1763.25 226.487C1754.87 229.39 1747.29 234.066 1740.51 240.516C1733.74 246.966 1728.26 255.351 1724.07 265.671C1719.87 275.668 1717.78 287.923 1717.78 302.436V450.947H1696.49V208.588H1717.78V243.902C1725.52 229.712 1735.84 219.553 1748.74 213.426C1761.96 206.976 1775.99 203.751 1790.82 203.751C1804.69 203.751 1816.62 206.331 1826.62 211.491C1836.94 216.651 1845.33 223.746 1851.78 232.776C1858.55 241.483 1863.55 251.965 1866.77 264.22C1870 276.475 1871.61 289.697 1871.61 303.887ZM2115.88 208.588L1997.85 520.123C1993.98 530.443 1988.01 538.183 1979.95 543.343C1972.21 548.826 1963.66 551.567 1954.31 551.567C1951.73 551.567 1949.15 551.083 1946.57 550.116C1943.99 549.471 1941.57 548.665 1939.31 547.697V531.733C1944.47 534.313 1949.47 535.603 1954.31 535.603C1959.79 535.603 1965.11 533.668 1970.27 529.798C1975.76 526.251 1979.79 520.768 1982.37 513.351L2006.07 451.915L1919.96 208.588H1941.25L2015.75 428.695L2094.11 208.588H2115.88ZM2509.58 129.253H2326.23V263.252H2475.23V282.118H2326.23V450.947H2305.43V110.871H2509.58V129.253ZM2703.44 450.947H2691.83C2682.48 450.947 2675.71 448.851 2671.51 444.658C2667.64 440.466 2665.71 433.855 2665.71 424.825V415.633C2656.03 428.533 2642.97 438.531 2626.53 445.626C2610.4 452.721 2593.95 456.268 2577.18 456.268C2567.51 456.268 2558.16 454.817 2549.13 451.915C2540.1 449.335 2532.03 445.303 2524.94 439.821C2518.17 434.016 2512.68 426.76 2508.49 418.052C2504.3 409.345 2502.2 398.863 2502.2 386.608C2502.2 372.418 2504.94 360.163 2510.43 349.843C2516.23 339.201 2523.81 330.493 2533.16 323.721C2542.51 316.948 2553.32 311.95 2565.57 308.725C2577.83 305.177 2590.57 303.403 2603.79 303.403C2614.11 303.403 2624.59 304.371 2635.23 306.306C2645.88 308.241 2656.03 311.143 2665.71 315.013V283.57C2665.71 273.572 2663.77 264.703 2659.9 256.963C2656.36 249.223 2651.52 242.773 2645.39 237.613C2639.59 232.131 2632.65 228.1 2624.59 225.52C2616.85 222.617 2608.63 221.166 2599.92 221.166C2587.66 221.166 2575.41 224.391 2563.15 230.841C2550.9 237.291 2540.58 247.288 2532.19 260.833L2516.23 249.223C2520.1 241.806 2525.1 235.356 2531.23 229.873C2537.68 224.068 2544.77 219.07 2552.51 214.877C2560.25 210.685 2568.48 207.621 2577.18 205.686C2586.21 203.428 2595.08 202.3 2603.79 202.3C2614.43 202.3 2624.75 203.912 2634.75 207.137C2644.75 210.362 2653.45 215.361 2660.87 222.133C2668.61 228.906 2674.74 237.613 2679.25 248.256C2684.09 258.898 2686.51 271.637 2686.51 286.472V424.825C2686.51 430.307 2689.74 433.048 2696.19 433.048H2703.44V450.947ZM2665.71 389.995V337.266C2658.61 332.428 2649.75 328.558 2639.1 325.656C2628.78 322.753 2617.82 321.302 2606.21 321.302C2594.92 321.302 2584.28 322.753 2574.28 325.656C2564.61 328.558 2556.06 332.751 2548.64 338.233C2541.22 343.716 2535.26 350.488 2530.74 358.551C2526.55 366.291 2524.45 374.998 2524.45 384.673C2524.45 393.703 2525.91 401.605 2528.81 408.377C2531.71 414.827 2535.58 420.31 2540.42 424.825C2545.58 429.017 2551.38 432.242 2557.83 434.5C2564.61 436.435 2571.86 437.402 2579.6 437.402C2594.44 437.402 2609.76 433.371 2625.56 425.308C2641.68 417.246 2655.07 405.475 2665.71 389.995ZM2936.43 247.772L2918.53 259.866C2911.11 247.611 2901.92 238.258 2890.96 231.808C2880.31 225.036 2868.22 221.65 2854.67 221.65C2842.74 221.65 2831.78 224.23 2821.78 229.39C2812.1 234.55 2803.72 241.967 2796.62 251.642C2789.53 260.995 2784.05 272.443 2780.18 285.988C2776.31 299.211 2774.37 313.885 2774.37 330.01C2774.37 346.135 2776.31 360.808 2780.18 374.031C2784.05 387.253 2789.53 398.702 2796.62 408.377C2803.72 417.73 2812.1 425.147 2821.78 430.63C2831.78 435.79 2842.74 438.37 2854.67 438.37C2868.22 438.37 2880.31 434.983 2890.96 428.211C2901.92 421.438 2911.11 412.086 2918.53 400.153L2936.43 411.763C2927.4 426.276 2915.95 437.563 2902.08 445.626C2888.21 453.366 2872.41 457.236 2854.67 457.236C2839.19 457.236 2825.17 454.172 2812.59 448.045C2800.01 441.917 2789.21 433.371 2780.18 422.406C2771.15 411.118 2764.05 397.735 2758.89 382.255C2754.05 366.452 2751.64 349.037 2751.64 330.01C2751.64 310.982 2754.05 293.728 2758.89 278.248C2764.05 262.446 2771.15 249.062 2780.18 238.097C2789.21 226.81 2800.01 218.102 2812.59 211.975C2825.17 205.847 2839.19 202.783 2854.67 202.783C2872.41 202.783 2888.21 206.653 2902.08 214.393C2915.95 222.133 2927.4 233.26 2936.43 247.772ZM3077.94 449.496C3068.91 454.333 3059.71 456.752 3050.36 456.752C3036.17 456.752 3024.08 451.431 3014.08 440.788C3004.41 429.823 2999.57 414.827 2999.57 395.8V226.487H2960.38V208.588H2999.57V110.871H3020.85V208.588H3076.97V226.487H3020.85V400.637C3020.85 412.892 3024.08 422.245 3030.53 428.695C3037.3 435.145 3044.88 438.37 3053.26 438.37C3062.29 438.37 3070.52 434.822 3077.94 427.727V449.496ZM3320.04 329.526C3320.04 348.553 3317.62 365.968 3312.79 381.771C3308.27 397.573 3301.5 411.118 3292.47 422.406C3283.76 433.371 3272.96 441.917 3260.06 448.045C3247.48 454.172 3233.13 457.236 3217 457.236C3201.2 457.236 3186.85 454.172 3173.95 448.045C3161.37 441.917 3150.57 433.371 3141.54 422.406C3132.83 411.118 3126.06 397.573 3121.22 381.771C3116.71 365.968 3114.45 348.553 3114.45 329.526C3114.45 310.498 3116.71 293.245 3121.22 277.765C3126.06 261.962 3132.83 248.578 3141.54 237.613C3150.57 226.326 3161.37 217.618 3173.95 211.491C3186.85 205.363 3201.2 202.3 3217 202.3C3233.13 202.3 3247.48 205.363 3260.06 211.491C3272.96 217.618 3283.76 226.326 3292.47 237.613C3301.5 248.578 3308.27 261.962 3312.79 277.765C3317.62 293.245 3320.04 310.498 3320.04 329.526ZM3297.31 329.526C3297.31 313.401 3295.53 298.727 3291.98 285.505C3288.44 272.282 3283.12 260.995 3276.02 251.642C3269.25 241.967 3260.86 234.55 3250.87 229.39C3240.87 224.23 3229.58 221.65 3217 221.65C3204.43 221.65 3193.14 224.23 3183.14 229.39C3173.14 234.55 3164.76 241.967 3157.99 251.642C3151.21 260.995 3146.05 272.282 3142.51 285.505C3138.96 298.727 3137.18 313.401 3137.18 329.526C3137.18 345.651 3138.96 360.486 3142.51 374.031C3146.05 387.253 3151.21 398.702 3157.99 408.377C3164.76 417.73 3173.14 424.986 3183.14 430.146C3193.14 435.306 3204.43 437.886 3217 437.886C3229.58 437.886 3240.87 435.306 3250.87 430.146C3260.86 424.986 3269.25 417.73 3276.02 408.377C3283.12 398.702 3288.44 387.253 3291.98 374.031C3295.53 360.486 3297.31 345.651 3297.31 329.526ZM3502.6 208.588L3494.86 228.422C3488.74 224.875 3480.51 223.101 3470.19 223.101C3461.81 223.101 3453.42 224.713 3445.04 227.938C3436.65 230.841 3429.07 235.517 3422.3 241.967C3415.53 248.417 3410.05 256.802 3405.85 267.122C3401.66 277.12 3399.57 289.375 3399.57 303.887V450.947H3378.28V208.588H3399.57V243.902C3407.31 229.712 3417.63 219.553 3430.53 213.426C3443.75 206.976 3457.78 203.751 3472.61 203.751C3484.22 203.751 3494.22 205.363 3502.6 208.588ZM3710.75 208.588L3592.71 520.123C3588.84 530.443 3582.87 538.183 3574.81 543.343C3567.07 548.826 3558.53 551.567 3549.17 551.567C3546.59 551.567 3544.01 551.083 3541.43 550.116C3538.85 549.471 3536.43 548.665 3534.18 547.697V531.733C3539.34 534.313 3544.34 535.603 3549.17 535.603C3554.66 535.603 3559.98 533.668 3565.14 529.798C3570.62 526.251 3574.65 520.768 3577.23 513.351L3600.93 451.915L3514.83 208.588H3536.11L3610.61 428.695L3688.98 208.588H3710.75Z" fill="#FF0000"/>
<path d="M222.925 184.584C232.245 196.345 239.235 205.332 243.895 211.545C248.777 217.758 251.551 221.42 252.216 222.529C261.314 237.397 265.863 252.486 265.863 267.797C265.863 274.232 265.087 281.333 263.533 289.1C262.202 296.644 260.538 303.745 258.541 310.402C256.543 317.059 254.324 322.607 251.883 327.045C249.664 331.483 247.556 333.702 245.559 333.702C243.784 333.702 242.896 332.814 242.896 331.039C242.896 329.929 243.562 327.821 244.894 324.715C251.329 309.404 254.546 291.762 254.546 271.791C254.546 248.492 241.01 227.3 213.938 208.216C209.944 205.554 206.727 203.446 204.286 201.892C201.845 200.339 199.737 199.118 197.961 198.231C196.186 197.121 194.411 196.456 192.636 196.234C190.861 195.79 188.752 195.346 186.312 194.902V387.957C186.312 395.501 183.982 402.824 179.322 409.925C174.662 416.804 168.559 422.906 161.015 428.232C153.692 433.557 145.482 437.885 136.384 441.213C127.286 444.32 118.41 445.873 109.756 445.873C99.1043 445.873 90.2282 443.432 83.1273 438.55C76.0265 433.668 72.4761 426.568 72.4761 417.248C72.4761 409.925 74.806 402.824 79.466 395.945C84.1259 388.844 90.1172 382.631 97.44 377.305C104.763 371.758 112.862 367.32 121.738 363.991C130.836 360.663 139.712 358.999 148.366 358.999C161.681 358.999 171.777 362.438 178.656 369.317V111.356H183.649C188.087 121.342 191.748 129.552 194.633 135.987C197.518 142.423 199.959 147.748 201.956 151.964C203.953 155.959 205.617 159.287 206.948 161.95C208.28 164.613 209.611 167.054 210.943 169.273C212.496 171.27 214.16 173.489 215.935 175.93C217.711 178.149 220.041 181.034 222.925 184.584Z" fill="#FF0000"/>
<path fill-rule="evenodd" clip-rule="evenodd" d="M183.972 401.349C177.52 415.778 169.609 425.222 153.437 437.327C121.422 457.62 91.5852 461.395 68.3622 449.485C63.4841 446.288 60.159 442.512 57.3917 437.87C47.0101 414.067 67.398 384.112 105.714 366.144C130.292 356.487 150.716 354.464 168.551 362.132C185.045 370.745 188.693 383.387 183.972 401.343V401.349Z" fill="black"/>
<path fill-rule="evenodd" clip-rule="evenodd" d="M144.355 428.46C138.577 442.25 127.075 450.431 109.468 455.379C79.8613 458.831 62.83 451.775 55.9001 432.76C51.9832 412.352 65.5311 389.836 93.5994 372.389C101.238 368.259 109.912 363.565 118.533 361.488C118.385 361.622 118.237 361.779 118.1 361.912C87.0185 379.226 85.29 406.296 115.034 407.949C136.437 406.302 148.108 411.231 144.344 428.46H144.355Z" fill="#FF0000"/>
<path fill-rule="evenodd" clip-rule="evenodd" d="M122.766 430.62C116.434 440.908 100.966 441.091 103.791 431.416C109.867 421.695 125.033 420.928 122.766 430.62Z" fill="black"/>
<path fill-rule="evenodd" clip-rule="evenodd" d="M136.895 382.549C126.206 397.261 108.627 388.265 122.751 378.06C132.085 373.04 138.083 375.623 136.895 382.549Z" fill="#FF0000"/>
</svg>
